<svg version="1.1" id="Layer_1" xmlns="http://www.w3.org/2000/svg" xmlns:xlink="http://www.w3.org/1999/xlink" x="0px" y="0px"
	 width="100%" viewBox="0 0 313 313" enable-background="new 0 0 313 313" xml:space="preserve">
<path fill="#FFFFFF" opacity="1.000000" stroke="none" 
	d="
M209.000000,314.000000 
	C139.333359,314.000000 70.166733,314.000000 1.000074,314.000000 
	C1.000049,209.666748 1.000049,105.333496 1.000025,1.000186 
	C105.333199,1.000124 209.666397,1.000124 313.999695,1.000062 
	C313.999817,105.333153 313.999817,209.666306 313.999908,313.999725 
	C279.166656,314.000000 244.333328,314.000000 209.000000,314.000000 
M59.983215,257.822845 
	C68.914604,257.822845 77.845985,257.822845 87.246590,257.822845 
	C87.246590,200.492157 87.246590,143.775696 87.246590,87.198090 
	C106.196854,87.198090 124.663261,87.198090 143.540222,87.198090 
	C143.540222,106.144028 143.540222,124.897057 143.540222,143.763245 
	C153.196747,143.763245 162.438751,143.763245 172.191528,143.763245 
	C172.191528,124.796570 172.191528,106.062111 172.191528,87.325409 
	C191.424194,87.325409 210.142715,87.325409 229.170471,87.325409 
	C229.170471,144.243805 229.170471,200.837051 229.170471,257.630524 
	C238.580902,257.630524 247.679092,257.630524 257.064819,257.630524 
	C257.064819,191.129349 257.064819,124.785988 257.064819,58.773514 
	C190.489868,58.773514 124.358246,58.773514 58.167496,58.773514 
	C58.167496,65.023697 58.164639,70.501724 58.167931,75.979759 
	C58.204178,136.300049 58.241383,196.620346 58.090790,257.494965 
	C58.413315,257.570587 58.735844,257.646210 59.983215,257.822845 
M172.167496,196.500076 
	C172.167496,188.411133 172.167496,180.322174 172.167496,172.269104 
	C162.325317,172.269104 153.081909,172.269104 143.778839,172.269104 
	C143.778839,200.776505 143.778839,229.013824 143.778839,257.223328 
	C153.327057,257.223328 162.586533,257.223328 172.167496,257.223328 
	C172.167496,237.127975 172.167496,217.314041 172.167496,196.500076 
z"/>
<path fill="#000000" opacity="1.000000" stroke="none" 
	d="
M58.278328,256.940643 
	C58.241383,196.620346 58.204178,136.300049 58.167931,75.979759 
	C58.164639,70.501724 58.167496,65.023697 58.167496,58.773514 
	C124.358246,58.773514 190.489868,58.773514 257.064819,58.773514 
	C257.064819,124.785988 257.064819,191.129349 257.064819,257.630524 
	C247.679092,257.630524 238.580902,257.630524 229.170471,257.630524 
	C229.170471,200.837051 229.170471,144.243805 229.170471,87.325409 
	C210.142715,87.325409 191.424194,87.325409 172.191528,87.325409 
	C172.191528,106.062111 172.191528,124.796570 172.191528,143.763245 
	C162.438751,143.763245 153.196747,143.763245 143.540222,143.763245 
	C143.540222,124.897057 143.540222,106.144028 143.540222,87.198090 
	C124.663261,87.198090 106.196854,87.198090 87.246590,87.198090 
	C87.246590,143.775696 87.246590,200.492157 87.246590,257.822845 
	C77.845985,257.822845 68.914604,257.822845 59.476944,257.571716 
	C58.812885,257.060883 58.582104,256.934235 58.278328,256.940643 
z"/>
<path fill="#000000" opacity="1.000000" stroke="none" 
	d="
M172.167496,197.000092 
	C172.167496,217.314041 172.167496,237.127975 172.167496,257.223328 
	C162.586533,257.223328 153.327057,257.223328 143.778839,257.223328 
	C143.778839,229.013824 143.778839,200.776505 143.778839,172.269104 
	C153.081909,172.269104 162.325317,172.269104 172.167496,172.269104 
	C172.167496,180.322174 172.167496,188.411133 172.167496,197.000092 
z"/>
<path fill="#404040" opacity="1.000000" stroke="none" 
	d="
M58.184559,257.217804 
	C58.582104,256.934235 58.812885,257.060883 59.014523,257.521179 
	C58.735844,257.646210 58.413315,257.570587 58.184559,257.217804 
z"/>
</svg>